<mxfile host="app.diagrams.net" agent="Mozilla/5.0 (Windows NT 10.0; Win64; x64) AppleWebKit/537.36 (KHTML, like Gecko) Chrome/131.0.0.0 Safari/537.36" version="24.8.3">
  <diagram name="Страница — 1" id="bVKTpgWmOsVaOyua8NCS">
    <mxGraphModel dx="1372" dy="820" grid="1" gridSize="10" guides="1" tooltips="1" connect="1" arrows="1" fold="1" page="1" pageScale="1" pageWidth="827" pageHeight="1169" math="0" shadow="0">
      <root>
        <mxCell id="0" />
        <mxCell id="1" parent="0" />
        <mxCell id="sfsFLUbqQns9yZeQdELg-48" style="edgeStyle=orthogonalEdgeStyle;rounded=0;orthogonalLoop=1;jettySize=auto;html=1;endArrow=block;endFill=0;" parent="1" source="_FC31g5Uvyz9J8IQCSE6-10" target="sfsFLUbqQns9yZeQdELg-1" edge="1">
          <mxGeometry relative="1" as="geometry" />
        </mxCell>
        <mxCell id="_FC31g5Uvyz9J8IQCSE6-10" value="&lt;span style=&quot;font-weight: 400;&quot;&gt;Student&lt;/span&gt;" style="swimlane;fontStyle=1;align=center;verticalAlign=top;childLayout=stackLayout;horizontal=1;startSize=26;horizontalStack=0;resizeParent=1;resizeParentMax=0;resizeLast=0;collapsible=1;marginBottom=0;whiteSpace=wrap;html=1;" parent="1" vertex="1">
          <mxGeometry x="370" y="10" width="210" height="294" as="geometry" />
        </mxCell>
        <mxCell id="sfsFLUbqQns9yZeQdELg-24" value="+id: Int" style="text;strokeColor=none;fillColor=none;align=left;verticalAlign=top;spacingLeft=4;spacingRight=4;overflow=hidden;rotatable=0;points=[[0,0.5],[1,0.5]];portConstraint=eastwest;whiteSpace=wrap;html=1;" parent="_FC31g5Uvyz9J8IQCSE6-10" vertex="1">
          <mxGeometry y="26" width="210" height="26" as="geometry" />
        </mxCell>
        <mxCell id="sfsFLUbqQns9yZeQdELg-25" value="+surname: String" style="text;strokeColor=none;fillColor=none;align=left;verticalAlign=top;spacingLeft=4;spacingRight=4;overflow=hidden;rotatable=0;points=[[0,0.5],[1,0.5]];portConstraint=eastwest;whiteSpace=wrap;html=1;" parent="_FC31g5Uvyz9J8IQCSE6-10" vertex="1">
          <mxGeometry y="52" width="210" height="26" as="geometry" />
        </mxCell>
        <mxCell id="sfsFLUbqQns9yZeQdELg-26" value="+name: String" style="text;strokeColor=none;fillColor=none;align=left;verticalAlign=top;spacingLeft=4;spacingRight=4;overflow=hidden;rotatable=0;points=[[0,0.5],[1,0.5]];portConstraint=eastwest;whiteSpace=wrap;html=1;" parent="_FC31g5Uvyz9J8IQCSE6-10" vertex="1">
          <mxGeometry y="78" width="210" height="26" as="geometry" />
        </mxCell>
        <mxCell id="sfsFLUbqQns9yZeQdELg-27" value="+patronymic: String" style="text;strokeColor=none;fillColor=none;align=left;verticalAlign=top;spacingLeft=4;spacingRight=4;overflow=hidden;rotatable=0;points=[[0,0.5],[1,0.5]];portConstraint=eastwest;whiteSpace=wrap;html=1;" parent="_FC31g5Uvyz9J8IQCSE6-10" vertex="1">
          <mxGeometry y="104" width="210" height="26" as="geometry" />
        </mxCell>
        <mxCell id="sfsFLUbqQns9yZeQdELg-28" value="+tg: String?" style="text;strokeColor=none;fillColor=none;align=left;verticalAlign=top;spacingLeft=4;spacingRight=4;overflow=hidden;rotatable=0;points=[[0,0.5],[1,0.5]];portConstraint=eastwest;whiteSpace=wrap;html=1;" parent="_FC31g5Uvyz9J8IQCSE6-10" vertex="1">
          <mxGeometry y="130" width="210" height="26" as="geometry" />
        </mxCell>
        <mxCell id="sfsFLUbqQns9yZeQdELg-29" value="+git: String?" style="text;strokeColor=none;fillColor=none;align=left;verticalAlign=top;spacingLeft=4;spacingRight=4;overflow=hidden;rotatable=0;points=[[0,0.5],[1,0.5]];portConstraint=eastwest;whiteSpace=wrap;html=1;" parent="_FC31g5Uvyz9J8IQCSE6-10" vertex="1">
          <mxGeometry y="156" width="210" height="26" as="geometry" />
        </mxCell>
        <mxCell id="sfsFLUbqQns9yZeQdELg-30" value="+email: String?" style="text;strokeColor=none;fillColor=none;align=left;verticalAlign=top;spacingLeft=4;spacingRight=4;overflow=hidden;rotatable=0;points=[[0,0.5],[1,0.5]];portConstraint=eastwest;whiteSpace=wrap;html=1;" parent="_FC31g5Uvyz9J8IQCSE6-10" vertex="1">
          <mxGeometry y="182" width="210" height="26" as="geometry" />
        </mxCell>
        <mxCell id="sfsFLUbqQns9yZeQdELg-31" value="+phone: String?" style="text;strokeColor=none;fillColor=none;align=left;verticalAlign=top;spacingLeft=4;spacingRight=4;overflow=hidden;rotatable=0;points=[[0,0.5],[1,0.5]];portConstraint=eastwest;whiteSpace=wrap;html=1;" parent="_FC31g5Uvyz9J8IQCSE6-10" vertex="1">
          <mxGeometry y="208" width="210" height="26" as="geometry" />
        </mxCell>
        <mxCell id="_FC31g5Uvyz9J8IQCSE6-12" value="" style="line;strokeWidth=1;fillColor=none;align=left;verticalAlign=middle;spacingTop=-1;spacingLeft=3;spacingRight=3;rotatable=0;labelPosition=right;points=[];portConstraint=eastwest;strokeColor=inherit;" parent="_FC31g5Uvyz9J8IQCSE6-10" vertex="1">
          <mxGeometry y="234" width="210" height="8" as="geometry" />
        </mxCell>
        <mxCell id="_FC31g5Uvyz9J8IQCSE6-22" value="&lt;div&gt;+getContact(): String&lt;br&gt;&lt;/div&gt;" style="text;strokeColor=none;fillColor=none;align=left;verticalAlign=top;spacingLeft=4;spacingRight=4;overflow=hidden;rotatable=0;points=[[0,0.5],[1,0.5]];portConstraint=eastwest;whiteSpace=wrap;html=1;" parent="_FC31g5Uvyz9J8IQCSE6-10" vertex="1">
          <mxGeometry y="242" width="210" height="26" as="geometry" />
        </mxCell>
        <mxCell id="_FC31g5Uvyz9J8IQCSE6-23" value="+getInfo(): String" style="text;strokeColor=none;fillColor=none;align=left;verticalAlign=top;spacingLeft=4;spacingRight=4;overflow=hidden;rotatable=0;points=[[0,0.5],[1,0.5]];portConstraint=eastwest;whiteSpace=wrap;html=1;" parent="_FC31g5Uvyz9J8IQCSE6-10" vertex="1">
          <mxGeometry y="268" width="210" height="26" as="geometry" />
        </mxCell>
        <mxCell id="sfsFLUbqQns9yZeQdELg-1" value="&lt;span style=&quot;font-weight: 400;&quot;&gt;StudentBase&lt;/span&gt;" style="swimlane;fontStyle=1;align=center;verticalAlign=top;childLayout=stackLayout;horizontal=1;startSize=26;horizontalStack=0;resizeParent=1;resizeParentMax=0;resizeLast=0;collapsible=1;marginBottom=0;whiteSpace=wrap;html=1;" parent="1" vertex="1">
          <mxGeometry x="10" y="10" width="240" height="564" as="geometry" />
        </mxCell>
        <mxCell id="sfsFLUbqQns9yZeQdELg-2" value="+id: Int" style="text;strokeColor=none;fillColor=none;align=left;verticalAlign=top;spacingLeft=4;spacingRight=4;overflow=hidden;rotatable=0;points=[[0,0.5],[1,0.5]];portConstraint=eastwest;whiteSpace=wrap;html=1;" parent="sfsFLUbqQns9yZeQdELg-1" vertex="1">
          <mxGeometry y="26" width="240" height="26" as="geometry" />
        </mxCell>
        <mxCell id="sfsFLUbqQns9yZeQdELg-3" value="+surname: String" style="text;strokeColor=none;fillColor=none;align=left;verticalAlign=top;spacingLeft=4;spacingRight=4;overflow=hidden;rotatable=0;points=[[0,0.5],[1,0.5]];portConstraint=eastwest;whiteSpace=wrap;html=1;" parent="sfsFLUbqQns9yZeQdELg-1" vertex="1">
          <mxGeometry y="52" width="240" height="26" as="geometry" />
        </mxCell>
        <mxCell id="sfsFLUbqQns9yZeQdELg-4" value="+name: String" style="text;strokeColor=none;fillColor=none;align=left;verticalAlign=top;spacingLeft=4;spacingRight=4;overflow=hidden;rotatable=0;points=[[0,0.5],[1,0.5]];portConstraint=eastwest;whiteSpace=wrap;html=1;" parent="sfsFLUbqQns9yZeQdELg-1" vertex="1">
          <mxGeometry y="78" width="240" height="26" as="geometry" />
        </mxCell>
        <mxCell id="sfsFLUbqQns9yZeQdELg-5" value="+patronymic: String" style="text;strokeColor=none;fillColor=none;align=left;verticalAlign=top;spacingLeft=4;spacingRight=4;overflow=hidden;rotatable=0;points=[[0,0.5],[1,0.5]];portConstraint=eastwest;whiteSpace=wrap;html=1;" parent="sfsFLUbqQns9yZeQdELg-1" vertex="1">
          <mxGeometry y="104" width="240" height="26" as="geometry" />
        </mxCell>
        <mxCell id="sfsFLUbqQns9yZeQdELg-6" value="+tg: String?" style="text;strokeColor=none;fillColor=none;align=left;verticalAlign=top;spacingLeft=4;spacingRight=4;overflow=hidden;rotatable=0;points=[[0,0.5],[1,0.5]];portConstraint=eastwest;whiteSpace=wrap;html=1;" parent="sfsFLUbqQns9yZeQdELg-1" vertex="1">
          <mxGeometry y="130" width="240" height="26" as="geometry" />
        </mxCell>
        <mxCell id="sfsFLUbqQns9yZeQdELg-7" value="+git: String?" style="text;strokeColor=none;fillColor=none;align=left;verticalAlign=top;spacingLeft=4;spacingRight=4;overflow=hidden;rotatable=0;points=[[0,0.5],[1,0.5]];portConstraint=eastwest;whiteSpace=wrap;html=1;" parent="sfsFLUbqQns9yZeQdELg-1" vertex="1">
          <mxGeometry y="156" width="240" height="26" as="geometry" />
        </mxCell>
        <mxCell id="sfsFLUbqQns9yZeQdELg-8" value="+email: String?" style="text;strokeColor=none;fillColor=none;align=left;verticalAlign=top;spacingLeft=4;spacingRight=4;overflow=hidden;rotatable=0;points=[[0,0.5],[1,0.5]];portConstraint=eastwest;whiteSpace=wrap;html=1;" parent="sfsFLUbqQns9yZeQdELg-1" vertex="1">
          <mxGeometry y="182" width="240" height="26" as="geometry" />
        </mxCell>
        <mxCell id="sfsFLUbqQns9yZeQdELg-9" value="+phone: String?" style="text;strokeColor=none;fillColor=none;align=left;verticalAlign=top;spacingLeft=4;spacingRight=4;overflow=hidden;rotatable=0;points=[[0,0.5],[1,0.5]];portConstraint=eastwest;whiteSpace=wrap;html=1;" parent="sfsFLUbqQns9yZeQdELg-1" vertex="1">
          <mxGeometry y="208" width="240" height="26" as="geometry" />
        </mxCell>
        <mxCell id="sfsFLUbqQns9yZeQdELg-10" value="" style="line;strokeWidth=1;fillColor=none;align=left;verticalAlign=middle;spacingTop=-1;spacingLeft=3;spacingRight=3;rotatable=0;labelPosition=right;points=[];portConstraint=eastwest;strokeColor=inherit;" parent="sfsFLUbqQns9yZeQdELg-1" vertex="1">
          <mxGeometry y="234" width="240" height="8" as="geometry" />
        </mxCell>
        <mxCell id="sfsFLUbqQns9yZeQdELg-11" value="&lt;div&gt;+isValidPhone(phone: String): Boolean&lt;br&gt;&lt;/div&gt;" style="text;strokeColor=none;fillColor=none;align=left;verticalAlign=top;spacingLeft=4;spacingRight=4;overflow=hidden;rotatable=0;points=[[0,0.5],[1,0.5]];portConstraint=eastwest;whiteSpace=wrap;html=1;" parent="sfsFLUbqQns9yZeQdELg-1" vertex="1">
          <mxGeometry y="242" width="240" height="26" as="geometry" />
        </mxCell>
        <mxCell id="sfsFLUbqQns9yZeQdELg-12" value="+isValidText(text: String): Boolean" style="text;strokeColor=none;fillColor=none;align=left;verticalAlign=top;spacingLeft=4;spacingRight=4;overflow=hidden;rotatable=0;points=[[0,0.5],[1,0.5]];portConstraint=eastwest;whiteSpace=wrap;html=1;" parent="sfsFLUbqQns9yZeQdELg-1" vertex="1">
          <mxGeometry y="268" width="240" height="26" as="geometry" />
        </mxCell>
        <mxCell id="sfsFLUbqQns9yZeQdELg-13" value="+isValidTg(tg: String): Boolean" style="text;strokeColor=none;fillColor=none;align=left;verticalAlign=top;spacingLeft=4;spacingRight=4;overflow=hidden;rotatable=0;points=[[0,0.5],[1,0.5]];portConstraint=eastwest;whiteSpace=wrap;html=1;" parent="sfsFLUbqQns9yZeQdELg-1" vertex="1">
          <mxGeometry y="294" width="240" height="26" as="geometry" />
        </mxCell>
        <mxCell id="sfsFLUbqQns9yZeQdELg-14" value="+isValidGit(git: String): Boolean" style="text;strokeColor=none;fillColor=none;align=left;verticalAlign=top;spacingLeft=4;spacingRight=4;overflow=hidden;rotatable=0;points=[[0,0.5],[1,0.5]];portConstraint=eastwest;whiteSpace=wrap;html=1;" parent="sfsFLUbqQns9yZeQdELg-1" vertex="1">
          <mxGeometry y="320" width="240" height="26" as="geometry" />
        </mxCell>
        <mxCell id="sfsFLUbqQns9yZeQdELg-16" value="+isValidEmail(email: String): Boolean" style="text;strokeColor=none;fillColor=none;align=left;verticalAlign=top;spacingLeft=4;spacingRight=4;overflow=hidden;rotatable=0;points=[[0,0.5],[1,0.5]];portConstraint=eastwest;whiteSpace=wrap;html=1;" parent="sfsFLUbqQns9yZeQdELg-1" vertex="1">
          <mxGeometry y="346" width="240" height="26" as="geometry" />
        </mxCell>
        <mxCell id="sfsFLUbqQns9yZeQdELg-17" value="+optValidate()" style="text;strokeColor=none;fillColor=none;align=left;verticalAlign=top;spacingLeft=4;spacingRight=4;overflow=hidden;rotatable=0;points=[[0,0.5],[1,0.5]];portConstraint=eastwest;whiteSpace=wrap;html=1;" parent="sfsFLUbqQns9yZeQdELg-1" vertex="1">
          <mxGeometry y="372" width="240" height="26" as="geometry" />
        </mxCell>
        <mxCell id="sfsFLUbqQns9yZeQdELg-18" value="+validate()" style="text;strokeColor=none;fillColor=none;align=left;verticalAlign=top;spacingLeft=4;spacingRight=4;overflow=hidden;rotatable=0;points=[[0,0.5],[1,0.5]];portConstraint=eastwest;whiteSpace=wrap;html=1;" parent="sfsFLUbqQns9yZeQdELg-1" vertex="1">
          <mxGeometry y="398" width="240" height="26" as="geometry" />
        </mxCell>
        <mxCell id="sfsFLUbqQns9yZeQdELg-19" value="+setContacts(tg: String?, git: String?, email: String?, phone: String?)" style="text;strokeColor=none;fillColor=none;align=left;verticalAlign=top;spacingLeft=4;spacingRight=4;overflow=hidden;rotatable=0;points=[[0,0.5],[1,0.5]];portConstraint=eastwest;whiteSpace=wrap;html=1;" parent="sfsFLUbqQns9yZeQdELg-1" vertex="1">
          <mxGeometry y="424" width="240" height="36" as="geometry" />
        </mxCell>
        <mxCell id="sfsFLUbqQns9yZeQdELg-20" value="+getIn(): String" style="text;strokeColor=none;fillColor=none;align=left;verticalAlign=top;spacingLeft=4;spacingRight=4;overflow=hidden;rotatable=0;points=[[0,0.5],[1,0.5]];portConstraint=eastwest;whiteSpace=wrap;html=1;" parent="sfsFLUbqQns9yZeQdELg-1" vertex="1">
          <mxGeometry y="460" width="240" height="26" as="geometry" />
        </mxCell>
        <mxCell id="sfsFLUbqQns9yZeQdELg-21" value="+anyContact(): Boolean" style="text;strokeColor=none;fillColor=none;align=left;verticalAlign=top;spacingLeft=4;spacingRight=4;overflow=hidden;rotatable=0;points=[[0,0.5],[1,0.5]];portConstraint=eastwest;whiteSpace=wrap;html=1;" parent="sfsFLUbqQns9yZeQdELg-1" vertex="1">
          <mxGeometry y="486" width="240" height="26" as="geometry" />
        </mxCell>
        <mxCell id="sfsFLUbqQns9yZeQdELg-22" value="+toString(): String" style="text;strokeColor=none;fillColor=none;align=left;verticalAlign=top;spacingLeft=4;spacingRight=4;overflow=hidden;rotatable=0;points=[[0,0.5],[1,0.5]];portConstraint=eastwest;whiteSpace=wrap;html=1;" parent="sfsFLUbqQns9yZeQdELg-1" vertex="1">
          <mxGeometry y="512" width="240" height="26" as="geometry" />
        </mxCell>
        <mxCell id="sfsFLUbqQns9yZeQdELg-23" value="+write()&amp;nbsp;" style="text;strokeColor=none;fillColor=none;align=left;verticalAlign=top;spacingLeft=4;spacingRight=4;overflow=hidden;rotatable=0;points=[[0,0.5],[1,0.5]];portConstraint=eastwest;whiteSpace=wrap;html=1;" parent="sfsFLUbqQns9yZeQdELg-1" vertex="1">
          <mxGeometry y="538" width="240" height="26" as="geometry" />
        </mxCell>
        <mxCell id="sfsFLUbqQns9yZeQdELg-47" style="edgeStyle=orthogonalEdgeStyle;rounded=0;orthogonalLoop=1;jettySize=auto;html=1;endArrow=block;endFill=0;" parent="1" source="sfsFLUbqQns9yZeQdELg-32" target="sfsFLUbqQns9yZeQdELg-1" edge="1">
          <mxGeometry relative="1" as="geometry" />
        </mxCell>
        <mxCell id="sfsFLUbqQns9yZeQdELg-32" value="&lt;span style=&quot;font-weight: 400;&quot;&gt;Student_short&lt;/span&gt;" style="swimlane;fontStyle=1;align=center;verticalAlign=top;childLayout=stackLayout;horizontal=1;startSize=26;horizontalStack=0;resizeParent=1;resizeParentMax=0;resizeLast=0;collapsible=1;marginBottom=0;whiteSpace=wrap;html=1;" parent="1" vertex="1">
          <mxGeometry x="370" y="340" width="210" height="216" as="geometry" />
        </mxCell>
        <mxCell id="sfsFLUbqQns9yZeQdELg-33" value="+id: Int" style="text;strokeColor=none;fillColor=none;align=left;verticalAlign=top;spacingLeft=4;spacingRight=4;overflow=hidden;rotatable=0;points=[[0,0.5],[1,0.5]];portConstraint=eastwest;whiteSpace=wrap;html=1;" parent="sfsFLUbqQns9yZeQdELg-32" vertex="1">
          <mxGeometry y="26" width="210" height="26" as="geometry" />
        </mxCell>
        <mxCell id="sfsFLUbqQns9yZeQdELg-34" value="+surnameIn: String" style="text;strokeColor=none;fillColor=none;align=left;verticalAlign=top;spacingLeft=4;spacingRight=4;overflow=hidden;rotatable=0;points=[[0,0.5],[1,0.5]];portConstraint=eastwest;whiteSpace=wrap;html=1;" parent="sfsFLUbqQns9yZeQdELg-32" vertex="1">
          <mxGeometry y="52" width="210" height="26" as="geometry" />
        </mxCell>
        <mxCell id="sfsFLUbqQns9yZeQdELg-38" value="+git: String" style="text;strokeColor=none;fillColor=none;align=left;verticalAlign=top;spacingLeft=4;spacingRight=4;overflow=hidden;rotatable=0;points=[[0,0.5],[1,0.5]];portConstraint=eastwest;whiteSpace=wrap;html=1;" parent="sfsFLUbqQns9yZeQdELg-32" vertex="1">
          <mxGeometry y="78" width="210" height="26" as="geometry" />
        </mxCell>
        <mxCell id="sfsFLUbqQns9yZeQdELg-40" value="+contact: String" style="text;strokeColor=none;fillColor=none;align=left;verticalAlign=top;spacingLeft=4;spacingRight=4;overflow=hidden;rotatable=0;points=[[0,0.5],[1,0.5]];portConstraint=eastwest;whiteSpace=wrap;html=1;" parent="sfsFLUbqQns9yZeQdELg-32" vertex="1">
          <mxGeometry y="104" width="210" height="26" as="geometry" />
        </mxCell>
        <mxCell id="sfsFLUbqQns9yZeQdELg-41" value="" style="line;strokeWidth=1;fillColor=none;align=left;verticalAlign=middle;spacingTop=-1;spacingLeft=3;spacingRight=3;rotatable=0;labelPosition=right;points=[];portConstraint=eastwest;strokeColor=inherit;" parent="sfsFLUbqQns9yZeQdELg-32" vertex="1">
          <mxGeometry y="130" width="210" height="8" as="geometry" />
        </mxCell>
        <mxCell id="sfsFLUbqQns9yZeQdELg-42" value="&lt;div&gt;+optValidate()&lt;br&gt;&lt;/div&gt;" style="text;strokeColor=none;fillColor=none;align=left;verticalAlign=top;spacingLeft=4;spacingRight=4;overflow=hidden;rotatable=0;points=[[0,0.5],[1,0.5]];portConstraint=eastwest;whiteSpace=wrap;html=1;" parent="sfsFLUbqQns9yZeQdELg-32" vertex="1">
          <mxGeometry y="138" width="210" height="26" as="geometry" />
        </mxCell>
        <mxCell id="sfsFLUbqQns9yZeQdELg-43" value="+isValidIn(text: String): Boolean" style="text;strokeColor=none;fillColor=none;align=left;verticalAlign=top;spacingLeft=4;spacingRight=4;overflow=hidden;rotatable=0;points=[[0,0.5],[1,0.5]];portConstraint=eastwest;whiteSpace=wrap;html=1;" parent="sfsFLUbqQns9yZeQdELg-32" vertex="1">
          <mxGeometry y="164" width="210" height="26" as="geometry" />
        </mxCell>
        <mxCell id="sfsFLUbqQns9yZeQdELg-44" value="+writeShort()" style="text;strokeColor=none;fillColor=none;align=left;verticalAlign=top;spacingLeft=4;spacingRight=4;overflow=hidden;rotatable=0;points=[[0,0.5],[1,0.5]];portConstraint=eastwest;whiteSpace=wrap;html=1;" parent="sfsFLUbqQns9yZeQdELg-32" vertex="1">
          <mxGeometry y="190" width="210" height="26" as="geometry" />
        </mxCell>
        <mxCell id="RASrGLIlpmT4Tx6roda1-1" value="&lt;span style=&quot;font-weight: 400;&quot;&gt;Data_table&lt;/span&gt;" style="swimlane;fontStyle=1;align=center;verticalAlign=top;childLayout=stackLayout;horizontal=1;startSize=26;horizontalStack=0;resizeParent=1;resizeParentMax=0;resizeLast=0;collapsible=1;marginBottom=0;whiteSpace=wrap;html=1;" parent="1" vertex="1">
          <mxGeometry x="30" y="610" width="210" height="164" as="geometry" />
        </mxCell>
        <mxCell id="RASrGLIlpmT4Tx6roda1-2" value="-data: Array&amp;lt;Array&amp;lt;T&amp;gt;&amp;gt;" style="text;strokeColor=none;fillColor=none;align=left;verticalAlign=top;spacingLeft=4;spacingRight=4;overflow=hidden;rotatable=0;points=[[0,0.5],[1,0.5]];portConstraint=eastwest;whiteSpace=wrap;html=1;" parent="RASrGLIlpmT4Tx6roda1-1" vertex="1">
          <mxGeometry y="26" width="210" height="26" as="geometry" />
        </mxCell>
        <mxCell id="RASrGLIlpmT4Tx6roda1-6" value="" style="line;strokeWidth=1;fillColor=none;align=left;verticalAlign=middle;spacingTop=-1;spacingLeft=3;spacingRight=3;rotatable=0;labelPosition=right;points=[];portConstraint=eastwest;strokeColor=inherit;" parent="RASrGLIlpmT4Tx6roda1-1" vertex="1">
          <mxGeometry y="52" width="210" height="8" as="geometry" />
        </mxCell>
        <mxCell id="RASrGLIlpmT4Tx6roda1-7" value="&lt;div&gt;+getElem(row: Int, column: Int): T&lt;br&gt;&lt;/div&gt;" style="text;strokeColor=none;fillColor=none;align=left;verticalAlign=top;spacingLeft=4;spacingRight=4;overflow=hidden;rotatable=0;points=[[0,0.5],[1,0.5]];portConstraint=eastwest;whiteSpace=wrap;html=1;" parent="RASrGLIlpmT4Tx6roda1-1" vertex="1">
          <mxGeometry y="60" width="210" height="26" as="geometry" />
        </mxCell>
        <mxCell id="RASrGLIlpmT4Tx6roda1-8" value="+getColumnCount(): Int" style="text;strokeColor=none;fillColor=none;align=left;verticalAlign=top;spacingLeft=4;spacingRight=4;overflow=hidden;rotatable=0;points=[[0,0.5],[1,0.5]];portConstraint=eastwest;whiteSpace=wrap;html=1;" parent="RASrGLIlpmT4Tx6roda1-1" vertex="1">
          <mxGeometry y="86" width="210" height="26" as="geometry" />
        </mxCell>
        <mxCell id="RASrGLIlpmT4Tx6roda1-9" value="+getRowCount(): Int" style="text;strokeColor=none;fillColor=none;align=left;verticalAlign=top;spacingLeft=4;spacingRight=4;overflow=hidden;rotatable=0;points=[[0,0.5],[1,0.5]];portConstraint=eastwest;whiteSpace=wrap;html=1;" parent="RASrGLIlpmT4Tx6roda1-1" vertex="1">
          <mxGeometry y="112" width="210" height="26" as="geometry" />
        </mxCell>
        <mxCell id="RASrGLIlpmT4Tx6roda1-19" value="+toString(): String" style="text;strokeColor=none;fillColor=none;align=left;verticalAlign=top;spacingLeft=4;spacingRight=4;overflow=hidden;rotatable=0;points=[[0,0.5],[1,0.5]];portConstraint=eastwest;whiteSpace=wrap;html=1;" parent="RASrGLIlpmT4Tx6roda1-1" vertex="1">
          <mxGeometry y="138" width="210" height="26" as="geometry" />
        </mxCell>
        <mxCell id="RASrGLIlpmT4Tx6roda1-10" value="&lt;span style=&quot;font-weight: 400;&quot;&gt;Data_list&lt;/span&gt;" style="swimlane;fontStyle=1;align=center;verticalAlign=top;childLayout=stackLayout;horizontal=1;startSize=26;horizontalStack=0;resizeParent=1;resizeParentMax=0;resizeLast=0;collapsible=1;marginBottom=0;whiteSpace=wrap;html=1;" parent="1" vertex="1">
          <mxGeometry x="350" y="670" width="220" height="242" as="geometry" />
        </mxCell>
        <mxCell id="RASrGLIlpmT4Tx6roda1-11" value="-elements: Array&amp;lt;T&amp;gt;&amp;nbsp;" style="text;strokeColor=none;fillColor=none;align=left;verticalAlign=top;spacingLeft=4;spacingRight=4;overflow=hidden;rotatable=0;points=[[0,0.5],[1,0.5]];portConstraint=eastwest;whiteSpace=wrap;html=1;" parent="RASrGLIlpmT4Tx6roda1-10" vertex="1">
          <mxGeometry y="26" width="220" height="26" as="geometry" />
        </mxCell>
        <mxCell id="RASrGLIlpmT4Tx6roda1-12" value="-selected: MutableSet&amp;lt;Int&amp;gt;" style="text;strokeColor=none;fillColor=none;align=left;verticalAlign=top;spacingLeft=4;spacingRight=4;overflow=hidden;rotatable=0;points=[[0,0.5],[1,0.5]];portConstraint=eastwest;whiteSpace=wrap;html=1;" parent="RASrGLIlpmT4Tx6roda1-10" vertex="1">
          <mxGeometry y="52" width="220" height="26" as="geometry" />
        </mxCell>
        <mxCell id="RASrGLIlpmT4Tx6roda1-15" value="" style="line;strokeWidth=1;fillColor=none;align=left;verticalAlign=middle;spacingTop=-1;spacingLeft=3;spacingRight=3;rotatable=0;labelPosition=right;points=[];portConstraint=eastwest;strokeColor=inherit;" parent="RASrGLIlpmT4Tx6roda1-10" vertex="1">
          <mxGeometry y="78" width="220" height="8" as="geometry" />
        </mxCell>
        <mxCell id="RASrGLIlpmT4Tx6roda1-16" value="&lt;div&gt;+select(number: Int)&lt;br&gt;&lt;/div&gt;" style="text;strokeColor=none;fillColor=none;align=left;verticalAlign=top;spacingLeft=4;spacingRight=4;overflow=hidden;rotatable=0;points=[[0,0.5],[1,0.5]];portConstraint=eastwest;whiteSpace=wrap;html=1;" parent="RASrGLIlpmT4Tx6roda1-10" vertex="1">
          <mxGeometry y="86" width="220" height="26" as="geometry" />
        </mxCell>
        <mxCell id="RASrGLIlpmT4Tx6roda1-17" value="+getSelected(): IntArray" style="text;strokeColor=none;fillColor=none;align=left;verticalAlign=top;spacingLeft=4;spacingRight=4;overflow=hidden;rotatable=0;points=[[0,0.5],[1,0.5]];portConstraint=eastwest;whiteSpace=wrap;html=1;" parent="RASrGLIlpmT4Tx6roda1-10" vertex="1">
          <mxGeometry y="112" width="220" height="26" as="geometry" />
        </mxCell>
        <mxCell id="RASrGLIlpmT4Tx6roda1-18" value="+buildNames(): Array&amp;lt;String&amp;gt;" style="text;strokeColor=none;fillColor=none;align=left;verticalAlign=top;spacingLeft=4;spacingRight=4;overflow=hidden;rotatable=0;points=[[0,0.5],[1,0.5]];portConstraint=eastwest;whiteSpace=wrap;html=1;" parent="RASrGLIlpmT4Tx6roda1-10" vertex="1">
          <mxGeometry y="138" width="220" height="26" as="geometry" />
        </mxCell>
        <mxCell id="RASrGLIlpmT4Tx6roda1-20" value="+buildData(): Data_table&amp;lt;Any&amp;gt;" style="text;strokeColor=none;fillColor=none;align=left;verticalAlign=top;spacingLeft=4;spacingRight=4;overflow=hidden;rotatable=0;points=[[0,0.5],[1,0.5]];portConstraint=eastwest;whiteSpace=wrap;html=1;" parent="RASrGLIlpmT4Tx6roda1-10" vertex="1">
          <mxGeometry y="164" width="220" height="26" as="geometry" />
        </mxCell>
        <mxCell id="RASrGLIlpmT4Tx6roda1-21" value="#abstract getNames(): Array&amp;lt;String&amp;gt;" style="text;strokeColor=none;fillColor=none;align=left;verticalAlign=top;spacingLeft=4;spacingRight=4;overflow=hidden;rotatable=0;points=[[0,0.5],[1,0.5]];portConstraint=eastwest;whiteSpace=wrap;html=1;" parent="RASrGLIlpmT4Tx6roda1-10" vertex="1">
          <mxGeometry y="190" width="220" height="26" as="geometry" />
        </mxCell>
        <mxCell id="RASrGLIlpmT4Tx6roda1-22" value="#abstract getData(item: T): Array&amp;lt;Any&amp;gt;" style="text;strokeColor=none;fillColor=none;align=left;verticalAlign=top;spacingLeft=4;spacingRight=4;overflow=hidden;rotatable=0;points=[[0,0.5],[1,0.5]];portConstraint=eastwest;whiteSpace=wrap;html=1;" parent="RASrGLIlpmT4Tx6roda1-10" vertex="1">
          <mxGeometry y="216" width="220" height="26" as="geometry" />
        </mxCell>
        <mxCell id="RASrGLIlpmT4Tx6roda1-30" style="edgeStyle=orthogonalEdgeStyle;rounded=0;orthogonalLoop=1;jettySize=auto;html=1;endArrow=block;endFill=0;" parent="1" source="RASrGLIlpmT4Tx6roda1-33" target="RASrGLIlpmT4Tx6roda1-10" edge="1">
          <mxGeometry relative="1" as="geometry">
            <mxPoint x="290" y="930" as="sourcePoint" />
            <mxPoint x="330" y="790" as="targetPoint" />
            <Array as="points">
              <mxPoint x="290" y="860" />
              <mxPoint x="290" y="790" />
            </Array>
          </mxGeometry>
        </mxCell>
        <mxCell id="RASrGLIlpmT4Tx6roda1-33" value="&lt;span style=&quot;font-weight: 400;&quot;&gt;Data_list_student_short&lt;/span&gt;" style="swimlane;fontStyle=1;align=center;verticalAlign=top;childLayout=stackLayout;horizontal=1;startSize=26;horizontalStack=0;resizeParent=1;resizeParentMax=0;resizeLast=0;collapsible=1;marginBottom=0;whiteSpace=wrap;html=1;" parent="1" vertex="1">
          <mxGeometry x="10" y="810" width="250" height="138" as="geometry" />
        </mxCell>
        <mxCell id="RASrGLIlpmT4Tx6roda1-34" value="-elements: Array&amp;lt;T&amp;gt;&amp;nbsp;" style="text;strokeColor=none;fillColor=none;align=left;verticalAlign=top;spacingLeft=4;spacingRight=4;overflow=hidden;rotatable=0;points=[[0,0.5],[1,0.5]];portConstraint=eastwest;whiteSpace=wrap;html=1;" parent="RASrGLIlpmT4Tx6roda1-33" vertex="1">
          <mxGeometry y="26" width="250" height="26" as="geometry" />
        </mxCell>
        <mxCell id="RASrGLIlpmT4Tx6roda1-35" value="-selected: MutableSet&amp;lt;Int&amp;gt;" style="text;strokeColor=none;fillColor=none;align=left;verticalAlign=top;spacingLeft=4;spacingRight=4;overflow=hidden;rotatable=0;points=[[0,0.5],[1,0.5]];portConstraint=eastwest;whiteSpace=wrap;html=1;" parent="RASrGLIlpmT4Tx6roda1-33" vertex="1">
          <mxGeometry y="52" width="250" height="26" as="geometry" />
        </mxCell>
        <mxCell id="RASrGLIlpmT4Tx6roda1-36" value="" style="line;strokeWidth=1;fillColor=none;align=left;verticalAlign=middle;spacingTop=-1;spacingLeft=3;spacingRight=3;rotatable=0;labelPosition=right;points=[];portConstraint=eastwest;strokeColor=inherit;" parent="RASrGLIlpmT4Tx6roda1-33" vertex="1">
          <mxGeometry y="78" width="250" height="8" as="geometry" />
        </mxCell>
        <mxCell id="RASrGLIlpmT4Tx6roda1-41" value="+getNames(): Array&amp;lt;String&amp;gt;" style="text;strokeColor=none;fillColor=none;align=left;verticalAlign=top;spacingLeft=4;spacingRight=4;overflow=hidden;rotatable=0;points=[[0,0.5],[1,0.5]];portConstraint=eastwest;whiteSpace=wrap;html=1;" parent="RASrGLIlpmT4Tx6roda1-33" vertex="1">
          <mxGeometry y="86" width="250" height="26" as="geometry" />
        </mxCell>
        <mxCell id="RASrGLIlpmT4Tx6roda1-42" value="+getData(item: Student_short): Array&amp;lt;Any&amp;gt;" style="text;strokeColor=none;fillColor=none;align=left;verticalAlign=top;spacingLeft=4;spacingRight=4;overflow=hidden;rotatable=0;points=[[0,0.5],[1,0.5]];portConstraint=eastwest;whiteSpace=wrap;html=1;" parent="RASrGLIlpmT4Tx6roda1-33" vertex="1">
          <mxGeometry y="112" width="250" height="26" as="geometry" />
        </mxCell>
        <mxCell id="_PsTrMCltYZbcijLuAfg-1" value="&lt;span style=&quot;font-weight: 400; font-size: 12px;&quot;&gt;Student_list&lt;/span&gt;" style="swimlane;fontStyle=1;align=center;verticalAlign=top;childLayout=stackLayout;horizontal=1;startSize=26;horizontalStack=0;resizeParent=1;resizeParentMax=0;resizeLast=0;collapsible=1;marginBottom=0;whiteSpace=wrap;html=1;fontSize=12;fontColor=#000000;labelBackgroundColor=none;" vertex="1" parent="1">
          <mxGeometry x="880" y="160" width="240" height="356" as="geometry" />
        </mxCell>
        <mxCell id="_PsTrMCltYZbcijLuAfg-2" value="-students: MutableList&amp;lt;Student&amp;gt;" style="text;strokeColor=none;fillColor=none;align=left;verticalAlign=top;spacingLeft=4;spacingRight=4;overflow=hidden;rotatable=0;points=[[0,0.5],[1,0.5]];portConstraint=eastwest;whiteSpace=wrap;html=1;fontSize=12;fontColor=#000000;labelBackgroundColor=none;" vertex="1" parent="_PsTrMCltYZbcijLuAfg-1">
          <mxGeometry y="26" width="240" height="26" as="geometry" />
        </mxCell>
        <mxCell id="_PsTrMCltYZbcijLuAfg-10" value="" style="line;strokeWidth=1;fillColor=none;align=left;verticalAlign=middle;spacingTop=-1;spacingLeft=3;spacingRight=3;rotatable=0;labelPosition=right;points=[];portConstraint=eastwest;strokeColor=inherit;fontSize=12;fontColor=#000000;labelBackgroundColor=none;" vertex="1" parent="_PsTrMCltYZbcijLuAfg-1">
          <mxGeometry y="52" width="240" height="8" as="geometry" />
        </mxCell>
        <mxCell id="_PsTrMCltYZbcijLuAfg-11" value="&lt;div style=&quot;font-size: 12px;&quot;&gt;&lt;span style=&quot;background-color: initial;&quot;&gt;#abstract&lt;/span&gt;&lt;span style=&quot;font-family: &amp;quot;Roboto Mono&amp;quot;, monospace; white-space-collapse: preserve; background-color: initial;&quot;&gt; readFromFile(path: String): MutableList&amp;lt;Student&amp;gt;&lt;/span&gt;&lt;/div&gt;" style="text;strokeColor=none;fillColor=none;align=left;verticalAlign=top;spacingLeft=4;spacingRight=4;overflow=hidden;rotatable=0;points=[[0,0.5],[1,0.5]];portConstraint=eastwest;whiteSpace=wrap;html=1;fontSize=12;fontColor=#000000;labelBackgroundColor=none;" vertex="1" parent="_PsTrMCltYZbcijLuAfg-1">
          <mxGeometry y="60" width="240" height="40" as="geometry" />
        </mxCell>
        <mxCell id="_PsTrMCltYZbcijLuAfg-12" value="#abstract&lt;span style=&quot;font-family: &amp;quot;Roboto Mono&amp;quot;, monospace; font-size: 12px; white-space-collapse: preserve;&quot;&gt; writeToFile(path: String)&lt;/span&gt;" style="text;strokeColor=none;fillColor=none;align=left;verticalAlign=top;spacingLeft=4;spacingRight=4;overflow=hidden;rotatable=0;points=[[0,0.5],[1,0.5]];portConstraint=eastwest;whiteSpace=wrap;html=1;fontSize=12;fontColor=#000000;labelBackgroundColor=none;" vertex="1" parent="_PsTrMCltYZbcijLuAfg-1">
          <mxGeometry y="100" width="240" height="26" as="geometry" />
        </mxCell>
        <mxCell id="_PsTrMCltYZbcijLuAfg-13" value="&lt;span style=&quot;font-family: &amp;quot;Roboto Mono&amp;quot;, monospace; font-size: 12px; white-space-collapse: preserve;&quot;&gt;+ findById(id: Int): Student&lt;/span&gt;" style="text;strokeColor=none;fillColor=none;align=left;verticalAlign=top;spacingLeft=4;spacingRight=4;overflow=hidden;rotatable=0;points=[[0,0.5],[1,0.5]];portConstraint=eastwest;whiteSpace=wrap;html=1;fontSize=12;fontColor=#000000;labelBackgroundColor=none;" vertex="1" parent="_PsTrMCltYZbcijLuAfg-1">
          <mxGeometry y="126" width="240" height="26" as="geometry" />
        </mxCell>
        <mxCell id="_PsTrMCltYZbcijLuAfg-14" value="&lt;span style=&quot;font-family: &amp;quot;Roboto Mono&amp;quot;, monospace; font-size: 12px; white-space-collapse: preserve;&quot;&gt;+ get_k_n_student_short_list(n: Int, k: Int): Data_list&amp;lt;Student_short&amp;gt;&lt;/span&gt;" style="text;strokeColor=none;fillColor=none;align=left;verticalAlign=top;spacingLeft=4;spacingRight=4;overflow=hidden;rotatable=0;points=[[0,0.5],[1,0.5]];portConstraint=eastwest;whiteSpace=wrap;html=1;fontSize=12;fontColor=#000000;labelBackgroundColor=none;" vertex="1" parent="_PsTrMCltYZbcijLuAfg-1">
          <mxGeometry y="152" width="240" height="58" as="geometry" />
        </mxCell>
        <mxCell id="_PsTrMCltYZbcijLuAfg-15" value="&lt;span style=&quot;font-family: &amp;quot;Roboto Mono&amp;quot;, monospace; font-size: 12px; white-space-collapse: preserve;&quot;&gt;+ orderStudents()&lt;/span&gt;" style="text;strokeColor=none;fillColor=none;align=left;verticalAlign=top;spacingLeft=4;spacingRight=4;overflow=hidden;rotatable=0;points=[[0,0.5],[1,0.5]];portConstraint=eastwest;whiteSpace=wrap;html=1;fontSize=12;fontColor=#000000;labelBackgroundColor=none;" vertex="1" parent="_PsTrMCltYZbcijLuAfg-1">
          <mxGeometry y="210" width="240" height="26" as="geometry" />
        </mxCell>
        <mxCell id="_PsTrMCltYZbcijLuAfg-16" value="&lt;span style=&quot;font-family: &amp;quot;Roboto Mono&amp;quot;, monospace; font-size: 12px; white-space-collapse: preserve;&quot;&gt;+ addStudent(newSt: Student)&lt;/span&gt;" style="text;strokeColor=none;fillColor=none;align=left;verticalAlign=top;spacingLeft=4;spacingRight=4;overflow=hidden;rotatable=0;points=[[0,0.5],[1,0.5]];portConstraint=eastwest;whiteSpace=wrap;html=1;fontSize=12;fontColor=#000000;labelBackgroundColor=none;" vertex="1" parent="_PsTrMCltYZbcijLuAfg-1">
          <mxGeometry y="236" width="240" height="26" as="geometry" />
        </mxCell>
        <mxCell id="_PsTrMCltYZbcijLuAfg-17" value="&lt;span style=&quot;font-family: &amp;quot;Roboto Mono&amp;quot;, monospace; font-size: 12px; white-space-collapse: preserve;&quot;&gt;+ replaceStudentById(id: Int, updSt: Student): Boolean&lt;/span&gt;" style="text;strokeColor=none;fillColor=none;align=left;verticalAlign=top;spacingLeft=4;spacingRight=4;overflow=hidden;rotatable=0;points=[[0,0.5],[1,0.5]];portConstraint=eastwest;whiteSpace=wrap;html=1;fontSize=12;fontColor=#000000;labelBackgroundColor=none;" vertex="1" parent="_PsTrMCltYZbcijLuAfg-1">
          <mxGeometry y="262" width="240" height="38" as="geometry" />
        </mxCell>
        <mxCell id="_PsTrMCltYZbcijLuAfg-18" value="&lt;span style=&quot;font-family: &amp;quot;Roboto Mono&amp;quot;, monospace; font-size: 12px; white-space-collapse: preserve;&quot;&gt;+ removeById(id: Int)&lt;/span&gt;" style="text;strokeColor=none;fillColor=none;align=left;verticalAlign=top;spacingLeft=4;spacingRight=4;overflow=hidden;rotatable=0;points=[[0,0.5],[1,0.5]];portConstraint=eastwest;whiteSpace=wrap;html=1;fontSize=12;fontColor=#000000;labelBackgroundColor=none;" vertex="1" parent="_PsTrMCltYZbcijLuAfg-1">
          <mxGeometry y="300" width="240" height="30" as="geometry" />
        </mxCell>
        <mxCell id="_PsTrMCltYZbcijLuAfg-19" value="&lt;span style=&quot;font-family: &amp;quot;Roboto Mono&amp;quot;, monospace; font-size: 12px; white-space-collapse: preserve;&quot;&gt;+ get_count(): Int&lt;/span&gt;" style="text;strokeColor=none;fillColor=none;align=left;verticalAlign=top;spacingLeft=4;spacingRight=4;overflow=hidden;rotatable=0;points=[[0,0.5],[1,0.5]];portConstraint=eastwest;whiteSpace=wrap;html=1;fontSize=12;fontColor=#000000;labelBackgroundColor=none;" vertex="1" parent="_PsTrMCltYZbcijLuAfg-1">
          <mxGeometry y="330" width="240" height="26" as="geometry" />
        </mxCell>
        <mxCell id="_PsTrMCltYZbcijLuAfg-111" style="edgeStyle=orthogonalEdgeStyle;rounded=0;orthogonalLoop=1;jettySize=auto;html=1;endArrow=block;endFill=0;" edge="1" parent="1" source="_PsTrMCltYZbcijLuAfg-23" target="_PsTrMCltYZbcijLuAfg-1">
          <mxGeometry relative="1" as="geometry">
            <Array as="points">
              <mxPoint x="1181" y="100" />
              <mxPoint x="1181" y="210" />
            </Array>
          </mxGeometry>
        </mxCell>
        <mxCell id="_PsTrMCltYZbcijLuAfg-23" value="&lt;span style=&quot;font-weight: 400;&quot;&gt;Student_list_txt&lt;/span&gt;" style="swimlane;fontStyle=1;align=center;verticalAlign=top;childLayout=stackLayout;horizontal=1;startSize=26;horizontalStack=0;resizeParent=1;resizeParentMax=0;resizeLast=0;collapsible=1;marginBottom=0;whiteSpace=wrap;html=1;" vertex="1" parent="1">
          <mxGeometry x="1241" y="20" width="240" height="160" as="geometry" />
        </mxCell>
        <mxCell id="_PsTrMCltYZbcijLuAfg-24" value="+ filePath: String" style="text;strokeColor=none;fillColor=none;align=left;verticalAlign=top;spacingLeft=4;spacingRight=4;overflow=hidden;rotatable=0;points=[[0,0.5],[1,0.5]];portConstraint=eastwest;whiteSpace=wrap;html=1;" vertex="1" parent="_PsTrMCltYZbcijLuAfg-23">
          <mxGeometry y="26" width="240" height="26" as="geometry" />
        </mxCell>
        <mxCell id="_PsTrMCltYZbcijLuAfg-32" value="" style="line;strokeWidth=1;fillColor=none;align=left;verticalAlign=middle;spacingTop=-1;spacingLeft=3;spacingRight=3;rotatable=0;labelPosition=right;points=[];portConstraint=eastwest;strokeColor=inherit;" vertex="1" parent="_PsTrMCltYZbcijLuAfg-23">
          <mxGeometry y="52" width="240" height="8" as="geometry" />
        </mxCell>
        <mxCell id="_PsTrMCltYZbcijLuAfg-41" value="+&amp;nbsp;&lt;span style=&quot;font-family: &amp;quot;Roboto Mono&amp;quot;, monospace; white-space-collapse: preserve;&quot;&gt;readFromFile(path: String): MutableList&amp;lt;Student&amp;gt;&lt;/span&gt;" style="text;strokeColor=none;fillColor=none;align=left;verticalAlign=top;spacingLeft=4;spacingRight=4;overflow=hidden;rotatable=0;points=[[0,0.5],[1,0.5]];portConstraint=eastwest;whiteSpace=wrap;html=1;" vertex="1" parent="_PsTrMCltYZbcijLuAfg-23">
          <mxGeometry y="60" width="240" height="40" as="geometry" />
        </mxCell>
        <mxCell id="_PsTrMCltYZbcijLuAfg-42" value="+&amp;nbsp;&lt;span style=&quot;font-family: &amp;quot;Roboto Mono&amp;quot;, monospace; white-space-collapse: preserve;&quot;&gt;writeToFile(path: String)&lt;/span&gt;" style="text;strokeColor=none;fillColor=none;align=left;verticalAlign=top;spacingLeft=4;spacingRight=4;overflow=hidden;rotatable=0;points=[[0,0.5],[1,0.5]];portConstraint=eastwest;whiteSpace=wrap;html=1;" vertex="1" parent="_PsTrMCltYZbcijLuAfg-23">
          <mxGeometry y="100" width="240" height="26" as="geometry" />
        </mxCell>
        <mxCell id="_PsTrMCltYZbcijLuAfg-44" value="- readFromTxt(path: String): MutableList&amp;lt;Student&amp;gt; (companion obj)" style="text;strokeColor=none;fillColor=none;align=left;verticalAlign=top;spacingLeft=4;spacingRight=4;overflow=hidden;rotatable=0;points=[[0,0.5],[1,0.5]];portConstraint=eastwest;whiteSpace=wrap;html=1;" vertex="1" parent="_PsTrMCltYZbcijLuAfg-23">
          <mxGeometry y="126" width="240" height="34" as="geometry" />
        </mxCell>
        <mxCell id="_PsTrMCltYZbcijLuAfg-112" style="edgeStyle=orthogonalEdgeStyle;rounded=0;orthogonalLoop=1;jettySize=auto;html=1;endArrow=block;endFill=0;" edge="1" parent="1" source="_PsTrMCltYZbcijLuAfg-95" target="_PsTrMCltYZbcijLuAfg-1">
          <mxGeometry relative="1" as="geometry">
            <Array as="points">
              <mxPoint x="1150" y="303" />
              <mxPoint x="1150" y="303" />
            </Array>
          </mxGeometry>
        </mxCell>
        <mxCell id="_PsTrMCltYZbcijLuAfg-95" value="&lt;span style=&quot;font-weight: 400;&quot;&gt;Student_list_JSON&lt;/span&gt;" style="swimlane;fontStyle=1;align=center;verticalAlign=top;childLayout=stackLayout;horizontal=1;startSize=26;horizontalStack=0;resizeParent=1;resizeParentMax=0;resizeLast=0;collapsible=1;marginBottom=0;whiteSpace=wrap;html=1;" vertex="1" parent="1">
          <mxGeometry x="1241" y="210" width="240" height="186" as="geometry" />
        </mxCell>
        <mxCell id="_PsTrMCltYZbcijLuAfg-96" value="+ filePath: String" style="text;strokeColor=none;fillColor=none;align=left;verticalAlign=top;spacingLeft=4;spacingRight=4;overflow=hidden;rotatable=0;points=[[0,0.5],[1,0.5]];portConstraint=eastwest;whiteSpace=wrap;html=1;" vertex="1" parent="_PsTrMCltYZbcijLuAfg-95">
          <mxGeometry y="26" width="240" height="26" as="geometry" />
        </mxCell>
        <mxCell id="_PsTrMCltYZbcijLuAfg-103" value="- gson: Gson" style="text;strokeColor=none;fillColor=none;align=left;verticalAlign=top;spacingLeft=4;spacingRight=4;overflow=hidden;rotatable=0;points=[[0,0.5],[1,0.5]];portConstraint=eastwest;whiteSpace=wrap;html=1;" vertex="1" parent="_PsTrMCltYZbcijLuAfg-95">
          <mxGeometry y="52" width="240" height="26" as="geometry" />
        </mxCell>
        <mxCell id="_PsTrMCltYZbcijLuAfg-97" value="" style="line;strokeWidth=1;fillColor=none;align=left;verticalAlign=middle;spacingTop=-1;spacingLeft=3;spacingRight=3;rotatable=0;labelPosition=right;points=[];portConstraint=eastwest;strokeColor=inherit;" vertex="1" parent="_PsTrMCltYZbcijLuAfg-95">
          <mxGeometry y="78" width="240" height="8" as="geometry" />
        </mxCell>
        <mxCell id="_PsTrMCltYZbcijLuAfg-98" value="+&amp;nbsp;&lt;span style=&quot;font-family: &amp;quot;Roboto Mono&amp;quot;, monospace; white-space-collapse: preserve;&quot;&gt;readFromFile(path: String): MutableList&amp;lt;Student&amp;gt;&lt;/span&gt;" style="text;strokeColor=none;fillColor=none;align=left;verticalAlign=top;spacingLeft=4;spacingRight=4;overflow=hidden;rotatable=0;points=[[0,0.5],[1,0.5]];portConstraint=eastwest;whiteSpace=wrap;html=1;" vertex="1" parent="_PsTrMCltYZbcijLuAfg-95">
          <mxGeometry y="86" width="240" height="40" as="geometry" />
        </mxCell>
        <mxCell id="_PsTrMCltYZbcijLuAfg-99" value="+&amp;nbsp;&lt;span style=&quot;font-family: &amp;quot;Roboto Mono&amp;quot;, monospace; white-space-collapse: preserve;&quot;&gt;writeToFile(path: String)&lt;/span&gt;" style="text;strokeColor=none;fillColor=none;align=left;verticalAlign=top;spacingLeft=4;spacingRight=4;overflow=hidden;rotatable=0;points=[[0,0.5],[1,0.5]];portConstraint=eastwest;whiteSpace=wrap;html=1;" vertex="1" parent="_PsTrMCltYZbcijLuAfg-95">
          <mxGeometry y="126" width="240" height="26" as="geometry" />
        </mxCell>
        <mxCell id="_PsTrMCltYZbcijLuAfg-100" value="- readFromJson(path: String): MutableList&amp;lt;Student&amp;gt; (companion obj)" style="text;strokeColor=none;fillColor=none;align=left;verticalAlign=top;spacingLeft=4;spacingRight=4;overflow=hidden;rotatable=0;points=[[0,0.5],[1,0.5]];portConstraint=eastwest;whiteSpace=wrap;html=1;" vertex="1" parent="_PsTrMCltYZbcijLuAfg-95">
          <mxGeometry y="152" width="240" height="34" as="geometry" />
        </mxCell>
        <mxCell id="_PsTrMCltYZbcijLuAfg-113" style="edgeStyle=orthogonalEdgeStyle;rounded=0;orthogonalLoop=1;jettySize=auto;html=1;endArrow=block;endFill=0;" edge="1" parent="1" source="_PsTrMCltYZbcijLuAfg-104" target="_PsTrMCltYZbcijLuAfg-1">
          <mxGeometry relative="1" as="geometry">
            <Array as="points">
              <mxPoint x="1181" y="517" />
              <mxPoint x="1181" y="420" />
            </Array>
          </mxGeometry>
        </mxCell>
        <mxCell id="_PsTrMCltYZbcijLuAfg-104" value="&lt;span style=&quot;font-weight: 400;&quot;&gt;Student_list_YAML&lt;/span&gt;" style="swimlane;fontStyle=1;align=center;verticalAlign=top;childLayout=stackLayout;horizontal=1;startSize=26;horizontalStack=0;resizeParent=1;resizeParentMax=0;resizeLast=0;collapsible=1;marginBottom=0;whiteSpace=wrap;html=1;" vertex="1" parent="1">
          <mxGeometry x="1241" y="424" width="240" height="186" as="geometry" />
        </mxCell>
        <mxCell id="_PsTrMCltYZbcijLuAfg-105" value="+ filePath: String" style="text;strokeColor=none;fillColor=none;align=left;verticalAlign=top;spacingLeft=4;spacingRight=4;overflow=hidden;rotatable=0;points=[[0,0.5],[1,0.5]];portConstraint=eastwest;whiteSpace=wrap;html=1;" vertex="1" parent="_PsTrMCltYZbcijLuAfg-104">
          <mxGeometry y="26" width="240" height="26" as="geometry" />
        </mxCell>
        <mxCell id="_PsTrMCltYZbcijLuAfg-106" value="- yaml: Yaml" style="text;strokeColor=none;fillColor=none;align=left;verticalAlign=top;spacingLeft=4;spacingRight=4;overflow=hidden;rotatable=0;points=[[0,0.5],[1,0.5]];portConstraint=eastwest;whiteSpace=wrap;html=1;" vertex="1" parent="_PsTrMCltYZbcijLuAfg-104">
          <mxGeometry y="52" width="240" height="26" as="geometry" />
        </mxCell>
        <mxCell id="_PsTrMCltYZbcijLuAfg-107" value="" style="line;strokeWidth=1;fillColor=none;align=left;verticalAlign=middle;spacingTop=-1;spacingLeft=3;spacingRight=3;rotatable=0;labelPosition=right;points=[];portConstraint=eastwest;strokeColor=inherit;" vertex="1" parent="_PsTrMCltYZbcijLuAfg-104">
          <mxGeometry y="78" width="240" height="8" as="geometry" />
        </mxCell>
        <mxCell id="_PsTrMCltYZbcijLuAfg-108" value="+&amp;nbsp;&lt;span style=&quot;font-family: &amp;quot;Roboto Mono&amp;quot;, monospace; white-space-collapse: preserve;&quot;&gt;readFromFile(path: String): MutableList&amp;lt;Student&amp;gt;&lt;/span&gt;" style="text;strokeColor=none;fillColor=none;align=left;verticalAlign=top;spacingLeft=4;spacingRight=4;overflow=hidden;rotatable=0;points=[[0,0.5],[1,0.5]];portConstraint=eastwest;whiteSpace=wrap;html=1;" vertex="1" parent="_PsTrMCltYZbcijLuAfg-104">
          <mxGeometry y="86" width="240" height="40" as="geometry" />
        </mxCell>
        <mxCell id="_PsTrMCltYZbcijLuAfg-109" value="+&amp;nbsp;&lt;span style=&quot;font-family: &amp;quot;Roboto Mono&amp;quot;, monospace; white-space-collapse: preserve;&quot;&gt;writeToFile(path: String)&lt;/span&gt;" style="text;strokeColor=none;fillColor=none;align=left;verticalAlign=top;spacingLeft=4;spacingRight=4;overflow=hidden;rotatable=0;points=[[0,0.5],[1,0.5]];portConstraint=eastwest;whiteSpace=wrap;html=1;" vertex="1" parent="_PsTrMCltYZbcijLuAfg-104">
          <mxGeometry y="126" width="240" height="26" as="geometry" />
        </mxCell>
        <mxCell id="_PsTrMCltYZbcijLuAfg-110" value="- readFromYaml(path: String): MutableList&amp;lt;Student&amp;gt; (companion obj)" style="text;strokeColor=none;fillColor=none;align=left;verticalAlign=top;spacingLeft=4;spacingRight=4;overflow=hidden;rotatable=0;points=[[0,0.5],[1,0.5]];portConstraint=eastwest;whiteSpace=wrap;html=1;" vertex="1" parent="_PsTrMCltYZbcijLuAfg-104">
          <mxGeometry y="152" width="240" height="34" as="geometry" />
        </mxCell>
        <mxCell id="_PsTrMCltYZbcijLuAfg-222" style="edgeStyle=orthogonalEdgeStyle;rounded=0;orthogonalLoop=1;jettySize=auto;html=1;endArrow=block;endFill=0;" edge="1" parent="1" source="_PsTrMCltYZbcijLuAfg-114" target="_PsTrMCltYZbcijLuAfg-158">
          <mxGeometry relative="1" as="geometry">
            <Array as="points">
              <mxPoint x="1470" y="719" />
            </Array>
          </mxGeometry>
        </mxCell>
        <mxCell id="_PsTrMCltYZbcijLuAfg-114" value="&lt;span style=&quot;font-weight: 400;&quot;&gt;TxtFileStrategy&lt;/span&gt;" style="swimlane;fontStyle=1;align=center;verticalAlign=top;childLayout=stackLayout;horizontal=1;startSize=26;horizontalStack=0;resizeParent=1;resizeParentMax=0;resizeLast=0;collapsible=1;marginBottom=0;whiteSpace=wrap;html=1;" vertex="1" parent="1">
          <mxGeometry x="1390" y="780" width="240" height="98" as="geometry" />
        </mxCell>
        <mxCell id="_PsTrMCltYZbcijLuAfg-216" value="+ write(path: String, students: MutableList&amp;lt;Student&amp;gt;)" style="text;strokeColor=none;fillColor=none;align=left;verticalAlign=top;spacingLeft=4;spacingRight=4;overflow=hidden;rotatable=0;points=[[0,0.5],[1,0.5]];portConstraint=eastwest;whiteSpace=wrap;html=1;" vertex="1" parent="_PsTrMCltYZbcijLuAfg-114">
          <mxGeometry y="26" width="240" height="38" as="geometry" />
        </mxCell>
        <mxCell id="_PsTrMCltYZbcijLuAfg-215" value="+ read(path: String): MutableList&amp;lt;Student&amp;gt;" style="text;strokeColor=none;fillColor=none;align=left;verticalAlign=top;spacingLeft=4;spacingRight=4;overflow=hidden;rotatable=0;points=[[0,0.5],[1,0.5]];portConstraint=eastwest;whiteSpace=wrap;html=1;" vertex="1" parent="_PsTrMCltYZbcijLuAfg-114">
          <mxGeometry y="64" width="240" height="26" as="geometry" />
        </mxCell>
        <mxCell id="_PsTrMCltYZbcijLuAfg-123" value="" style="line;strokeWidth=1;fillColor=none;align=left;verticalAlign=middle;spacingTop=-1;spacingLeft=3;spacingRight=3;rotatable=0;labelPosition=right;points=[];portConstraint=eastwest;strokeColor=inherit;" vertex="1" parent="_PsTrMCltYZbcijLuAfg-114">
          <mxGeometry y="90" width="240" height="8" as="geometry" />
        </mxCell>
        <mxCell id="_PsTrMCltYZbcijLuAfg-224" style="edgeStyle=orthogonalEdgeStyle;rounded=0;orthogonalLoop=1;jettySize=auto;html=1;endArrow=block;endFill=0;" edge="1" parent="1" source="_PsTrMCltYZbcijLuAfg-136" target="_PsTrMCltYZbcijLuAfg-158">
          <mxGeometry relative="1" as="geometry" />
        </mxCell>
        <mxCell id="_PsTrMCltYZbcijLuAfg-136" value="&lt;span style=&quot;font-weight: 400;&quot;&gt;YamlFileStrategy&lt;/span&gt;" style="swimlane;fontStyle=1;align=center;verticalAlign=top;childLayout=stackLayout;horizontal=1;startSize=26;horizontalStack=0;resizeParent=1;resizeParentMax=0;resizeLast=0;collapsible=1;marginBottom=0;whiteSpace=wrap;html=1;" vertex="1" parent="1">
          <mxGeometry x="1130" y="1030" width="240" height="124" as="geometry" />
        </mxCell>
        <mxCell id="_PsTrMCltYZbcijLuAfg-220" value="+ read(path: String): MutableList&amp;lt;Student&amp;gt;" style="text;strokeColor=none;fillColor=none;align=left;verticalAlign=top;spacingLeft=4;spacingRight=4;overflow=hidden;rotatable=0;points=[[0,0.5],[1,0.5]];portConstraint=eastwest;whiteSpace=wrap;html=1;" vertex="1" parent="_PsTrMCltYZbcijLuAfg-136">
          <mxGeometry y="26" width="240" height="26" as="geometry" />
        </mxCell>
        <mxCell id="_PsTrMCltYZbcijLuAfg-219" value="+ write(path: String, students: MutableList&amp;lt;Student&amp;gt;)" style="text;strokeColor=none;fillColor=none;align=left;verticalAlign=top;spacingLeft=4;spacingRight=4;overflow=hidden;rotatable=0;points=[[0,0.5],[1,0.5]];portConstraint=eastwest;whiteSpace=wrap;html=1;" vertex="1" parent="_PsTrMCltYZbcijLuAfg-136">
          <mxGeometry y="52" width="240" height="38" as="geometry" />
        </mxCell>
        <mxCell id="_PsTrMCltYZbcijLuAfg-144" value="- yaml: Yaml" style="text;strokeColor=none;fillColor=none;align=left;verticalAlign=top;spacingLeft=4;spacingRight=4;overflow=hidden;rotatable=0;points=[[0,0.5],[1,0.5]];portConstraint=eastwest;whiteSpace=wrap;html=1;" vertex="1" parent="_PsTrMCltYZbcijLuAfg-136">
          <mxGeometry y="90" width="240" height="26" as="geometry" />
        </mxCell>
        <mxCell id="_PsTrMCltYZbcijLuAfg-145" value="" style="line;strokeWidth=1;fillColor=none;align=left;verticalAlign=middle;spacingTop=-1;spacingLeft=3;spacingRight=3;rotatable=0;labelPosition=right;points=[];portConstraint=eastwest;strokeColor=inherit;" vertex="1" parent="_PsTrMCltYZbcijLuAfg-136">
          <mxGeometry y="116" width="240" height="8" as="geometry" />
        </mxCell>
        <mxCell id="_PsTrMCltYZbcijLuAfg-158" value="&lt;span style=&quot;font-weight: 400;&quot;&gt;FileStrategy&lt;/span&gt;" style="swimlane;fontStyle=1;align=center;verticalAlign=top;childLayout=stackLayout;horizontal=1;startSize=26;horizontalStack=0;resizeParent=1;resizeParentMax=0;resizeLast=0;collapsible=1;marginBottom=0;whiteSpace=wrap;html=1;" vertex="1" parent="1">
          <mxGeometry x="1130" y="670" width="240" height="98" as="geometry">
            <mxRectangle x="850" y="908" width="100" height="30" as="alternateBounds" />
          </mxGeometry>
        </mxCell>
        <mxCell id="_PsTrMCltYZbcijLuAfg-159" value="+ read(path: String): MutableList&amp;lt;Student&amp;gt;" style="text;strokeColor=none;fillColor=none;align=left;verticalAlign=top;spacingLeft=4;spacingRight=4;overflow=hidden;rotatable=0;points=[[0,0.5],[1,0.5]];portConstraint=eastwest;whiteSpace=wrap;html=1;" vertex="1" parent="_PsTrMCltYZbcijLuAfg-158">
          <mxGeometry y="26" width="240" height="26" as="geometry" />
        </mxCell>
        <mxCell id="_PsTrMCltYZbcijLuAfg-160" value="+ write(path: String, students: MutableList&amp;lt;Student&amp;gt;)" style="text;strokeColor=none;fillColor=none;align=left;verticalAlign=top;spacingLeft=4;spacingRight=4;overflow=hidden;rotatable=0;points=[[0,0.5],[1,0.5]];portConstraint=eastwest;whiteSpace=wrap;html=1;" vertex="1" parent="_PsTrMCltYZbcijLuAfg-158">
          <mxGeometry y="52" width="240" height="38" as="geometry" />
        </mxCell>
        <mxCell id="_PsTrMCltYZbcijLuAfg-167" value="" style="line;strokeWidth=1;fillColor=none;align=left;verticalAlign=middle;spacingTop=-1;spacingLeft=3;spacingRight=3;rotatable=0;labelPosition=right;points=[];portConstraint=eastwest;strokeColor=inherit;" vertex="1" parent="_PsTrMCltYZbcijLuAfg-158">
          <mxGeometry y="90" width="240" height="8" as="geometry" />
        </mxCell>
        <mxCell id="_PsTrMCltYZbcijLuAfg-223" style="edgeStyle=orthogonalEdgeStyle;rounded=0;orthogonalLoop=1;jettySize=auto;html=1;endArrow=block;endFill=0;" edge="1" parent="1" source="_PsTrMCltYZbcijLuAfg-180" target="_PsTrMCltYZbcijLuAfg-158">
          <mxGeometry relative="1" as="geometry">
            <Array as="points">
              <mxPoint x="1330" y="982" />
            </Array>
          </mxGeometry>
        </mxCell>
        <mxCell id="_PsTrMCltYZbcijLuAfg-180" value="&lt;span style=&quot;font-weight: 400;&quot;&gt;JsonFileStrategy&lt;/span&gt;" style="swimlane;fontStyle=1;align=center;verticalAlign=top;childLayout=stackLayout;horizontal=1;startSize=26;horizontalStack=0;resizeParent=1;resizeParentMax=0;resizeLast=0;collapsible=1;marginBottom=0;whiteSpace=wrap;html=1;" vertex="1" parent="1">
          <mxGeometry x="1390" y="920" width="240" height="124" as="geometry" />
        </mxCell>
        <mxCell id="_PsTrMCltYZbcijLuAfg-218" value="+ read(path: String): MutableList&amp;lt;Student&amp;gt;" style="text;strokeColor=none;fillColor=none;align=left;verticalAlign=top;spacingLeft=4;spacingRight=4;overflow=hidden;rotatable=0;points=[[0,0.5],[1,0.5]];portConstraint=eastwest;whiteSpace=wrap;html=1;" vertex="1" parent="_PsTrMCltYZbcijLuAfg-180">
          <mxGeometry y="26" width="240" height="26" as="geometry" />
        </mxCell>
        <mxCell id="_PsTrMCltYZbcijLuAfg-217" value="+ write(path: String, students: MutableList&amp;lt;Student&amp;gt;)" style="text;strokeColor=none;fillColor=none;align=left;verticalAlign=top;spacingLeft=4;spacingRight=4;overflow=hidden;rotatable=0;points=[[0,0.5],[1,0.5]];portConstraint=eastwest;whiteSpace=wrap;html=1;" vertex="1" parent="_PsTrMCltYZbcijLuAfg-180">
          <mxGeometry y="52" width="240" height="38" as="geometry" />
        </mxCell>
        <mxCell id="_PsTrMCltYZbcijLuAfg-188" value="- gson: Gson" style="text;strokeColor=none;fillColor=none;align=left;verticalAlign=top;spacingLeft=4;spacingRight=4;overflow=hidden;rotatable=0;points=[[0,0.5],[1,0.5]];portConstraint=eastwest;whiteSpace=wrap;html=1;" vertex="1" parent="_PsTrMCltYZbcijLuAfg-180">
          <mxGeometry y="90" width="240" height="26" as="geometry" />
        </mxCell>
        <mxCell id="_PsTrMCltYZbcijLuAfg-189" value="" style="line;strokeWidth=1;fillColor=none;align=left;verticalAlign=middle;spacingTop=-1;spacingLeft=3;spacingRight=3;rotatable=0;labelPosition=right;points=[];portConstraint=eastwest;strokeColor=inherit;" vertex="1" parent="_PsTrMCltYZbcijLuAfg-180">
          <mxGeometry y="116" width="240" height="8" as="geometry" />
        </mxCell>
        <mxCell id="_PsTrMCltYZbcijLuAfg-221" style="edgeStyle=orthogonalEdgeStyle;rounded=0;orthogonalLoop=1;jettySize=auto;html=1;endArrow=none;endFill=0;" edge="1" parent="1" source="_PsTrMCltYZbcijLuAfg-202" target="_PsTrMCltYZbcijLuAfg-158">
          <mxGeometry relative="1" as="geometry">
            <Array as="points">
              <mxPoint x="1000" y="699" />
            </Array>
          </mxGeometry>
        </mxCell>
        <mxCell id="_PsTrMCltYZbcijLuAfg-202" value="&lt;span style=&quot;font-weight: 400; font-size: 12px;&quot;&gt;Student_list&lt;/span&gt;" style="swimlane;fontStyle=1;align=center;verticalAlign=top;childLayout=stackLayout;horizontal=1;startSize=26;horizontalStack=0;resizeParent=1;resizeParentMax=0;resizeLast=0;collapsible=1;marginBottom=0;whiteSpace=wrap;html=1;fontSize=12;fontColor=#000000;labelBackgroundColor=none;" vertex="1" parent="1">
          <mxGeometry x="870" y="768" width="240" height="382" as="geometry" />
        </mxCell>
        <mxCell id="_PsTrMCltYZbcijLuAfg-203" value="-fileStrategy: FileStrategy" style="text;strokeColor=none;fillColor=none;align=left;verticalAlign=top;spacingLeft=4;spacingRight=4;overflow=hidden;rotatable=0;points=[[0,0.5],[1,0.5]];portConstraint=eastwest;whiteSpace=wrap;html=1;fontSize=12;fontColor=#000000;labelBackgroundColor=none;" vertex="1" parent="_PsTrMCltYZbcijLuAfg-202">
          <mxGeometry y="26" width="240" height="26" as="geometry" />
        </mxCell>
        <mxCell id="_PsTrMCltYZbcijLuAfg-214" value="-students: MutableList&amp;lt;Student&amp;gt;" style="text;strokeColor=none;fillColor=none;align=left;verticalAlign=top;spacingLeft=4;spacingRight=4;overflow=hidden;rotatable=0;points=[[0,0.5],[1,0.5]];portConstraint=eastwest;whiteSpace=wrap;html=1;fontSize=12;fontColor=#000000;labelBackgroundColor=none;" vertex="1" parent="_PsTrMCltYZbcijLuAfg-202">
          <mxGeometry y="52" width="240" height="26" as="geometry" />
        </mxCell>
        <mxCell id="_PsTrMCltYZbcijLuAfg-204" value="" style="line;strokeWidth=1;fillColor=none;align=left;verticalAlign=middle;spacingTop=-1;spacingLeft=3;spacingRight=3;rotatable=0;labelPosition=right;points=[];portConstraint=eastwest;strokeColor=inherit;fontSize=12;fontColor=#000000;labelBackgroundColor=none;" vertex="1" parent="_PsTrMCltYZbcijLuAfg-202">
          <mxGeometry y="78" width="240" height="8" as="geometry" />
        </mxCell>
        <mxCell id="_PsTrMCltYZbcijLuAfg-205" value="&lt;div style=&quot;font-size: 12px;&quot;&gt;&lt;span style=&quot;background-color: initial;&quot;&gt;+&lt;/span&gt;&lt;span style=&quot;font-family: &amp;quot;Roboto Mono&amp;quot;, monospace; white-space-collapse: preserve; background-color: initial;&quot;&gt; readFromFile(path: String): MutableList&amp;lt;Student&amp;gt;&lt;/span&gt;&lt;/div&gt;" style="text;strokeColor=none;fillColor=none;align=left;verticalAlign=top;spacingLeft=4;spacingRight=4;overflow=hidden;rotatable=0;points=[[0,0.5],[1,0.5]];portConstraint=eastwest;whiteSpace=wrap;html=1;fontSize=12;fontColor=#000000;labelBackgroundColor=none;" vertex="1" parent="_PsTrMCltYZbcijLuAfg-202">
          <mxGeometry y="86" width="240" height="40" as="geometry" />
        </mxCell>
        <mxCell id="_PsTrMCltYZbcijLuAfg-206" value="&lt;span style=&quot;font-size: 12px;&quot;&gt;+&amp;nbsp;&lt;/span&gt;&lt;span style=&quot;font-family: &amp;quot;Roboto Mono&amp;quot;, monospace; font-size: 12px; white-space-collapse: preserve;&quot;&gt;writeToFile(path: String)&lt;/span&gt;" style="text;strokeColor=none;fillColor=none;align=left;verticalAlign=top;spacingLeft=4;spacingRight=4;overflow=hidden;rotatable=0;points=[[0,0.5],[1,0.5]];portConstraint=eastwest;whiteSpace=wrap;html=1;fontSize=12;fontColor=#000000;labelBackgroundColor=none;" vertex="1" parent="_PsTrMCltYZbcijLuAfg-202">
          <mxGeometry y="126" width="240" height="26" as="geometry" />
        </mxCell>
        <mxCell id="_PsTrMCltYZbcijLuAfg-207" value="&lt;span style=&quot;font-family: &amp;quot;Roboto Mono&amp;quot;, monospace; font-size: 12px; white-space-collapse: preserve;&quot;&gt;+ findById(id: Int): Student&lt;/span&gt;" style="text;strokeColor=none;fillColor=none;align=left;verticalAlign=top;spacingLeft=4;spacingRight=4;overflow=hidden;rotatable=0;points=[[0,0.5],[1,0.5]];portConstraint=eastwest;whiteSpace=wrap;html=1;fontSize=12;fontColor=#000000;labelBackgroundColor=none;" vertex="1" parent="_PsTrMCltYZbcijLuAfg-202">
          <mxGeometry y="152" width="240" height="26" as="geometry" />
        </mxCell>
        <mxCell id="_PsTrMCltYZbcijLuAfg-208" value="&lt;span style=&quot;font-family: &amp;quot;Roboto Mono&amp;quot;, monospace; font-size: 12px; white-space-collapse: preserve;&quot;&gt;+ get_k_n_student_short_list(n: Int, k: Int): Data_list&amp;lt;Student_short&amp;gt;&lt;/span&gt;" style="text;strokeColor=none;fillColor=none;align=left;verticalAlign=top;spacingLeft=4;spacingRight=4;overflow=hidden;rotatable=0;points=[[0,0.5],[1,0.5]];portConstraint=eastwest;whiteSpace=wrap;html=1;fontSize=12;fontColor=#000000;labelBackgroundColor=none;" vertex="1" parent="_PsTrMCltYZbcijLuAfg-202">
          <mxGeometry y="178" width="240" height="58" as="geometry" />
        </mxCell>
        <mxCell id="_PsTrMCltYZbcijLuAfg-209" value="&lt;span style=&quot;font-family: &amp;quot;Roboto Mono&amp;quot;, monospace; font-size: 12px; white-space-collapse: preserve;&quot;&gt;+ orderStudents()&lt;/span&gt;" style="text;strokeColor=none;fillColor=none;align=left;verticalAlign=top;spacingLeft=4;spacingRight=4;overflow=hidden;rotatable=0;points=[[0,0.5],[1,0.5]];portConstraint=eastwest;whiteSpace=wrap;html=1;fontSize=12;fontColor=#000000;labelBackgroundColor=none;" vertex="1" parent="_PsTrMCltYZbcijLuAfg-202">
          <mxGeometry y="236" width="240" height="26" as="geometry" />
        </mxCell>
        <mxCell id="_PsTrMCltYZbcijLuAfg-210" value="&lt;span style=&quot;font-family: &amp;quot;Roboto Mono&amp;quot;, monospace; font-size: 12px; white-space-collapse: preserve;&quot;&gt;+ addStudent(newSt: Student)&lt;/span&gt;" style="text;strokeColor=none;fillColor=none;align=left;verticalAlign=top;spacingLeft=4;spacingRight=4;overflow=hidden;rotatable=0;points=[[0,0.5],[1,0.5]];portConstraint=eastwest;whiteSpace=wrap;html=1;fontSize=12;fontColor=#000000;labelBackgroundColor=none;" vertex="1" parent="_PsTrMCltYZbcijLuAfg-202">
          <mxGeometry y="262" width="240" height="26" as="geometry" />
        </mxCell>
        <mxCell id="_PsTrMCltYZbcijLuAfg-211" value="&lt;span style=&quot;font-family: &amp;quot;Roboto Mono&amp;quot;, monospace; font-size: 12px; white-space-collapse: preserve;&quot;&gt;+ replaceStudentById(id: Int, updSt: Student): Boolean&lt;/span&gt;" style="text;strokeColor=none;fillColor=none;align=left;verticalAlign=top;spacingLeft=4;spacingRight=4;overflow=hidden;rotatable=0;points=[[0,0.5],[1,0.5]];portConstraint=eastwest;whiteSpace=wrap;html=1;fontSize=12;fontColor=#000000;labelBackgroundColor=none;" vertex="1" parent="_PsTrMCltYZbcijLuAfg-202">
          <mxGeometry y="288" width="240" height="38" as="geometry" />
        </mxCell>
        <mxCell id="_PsTrMCltYZbcijLuAfg-212" value="&lt;span style=&quot;font-family: &amp;quot;Roboto Mono&amp;quot;, monospace; font-size: 12px; white-space-collapse: preserve;&quot;&gt;+ removeById(id: Int)&lt;/span&gt;" style="text;strokeColor=none;fillColor=none;align=left;verticalAlign=top;spacingLeft=4;spacingRight=4;overflow=hidden;rotatable=0;points=[[0,0.5],[1,0.5]];portConstraint=eastwest;whiteSpace=wrap;html=1;fontSize=12;fontColor=#000000;labelBackgroundColor=none;" vertex="1" parent="_PsTrMCltYZbcijLuAfg-202">
          <mxGeometry y="326" width="240" height="30" as="geometry" />
        </mxCell>
        <mxCell id="_PsTrMCltYZbcijLuAfg-213" value="&lt;span style=&quot;font-family: &amp;quot;Roboto Mono&amp;quot;, monospace; font-size: 12px; white-space-collapse: preserve;&quot;&gt;+ get_count(): Int&lt;/span&gt;" style="text;strokeColor=none;fillColor=none;align=left;verticalAlign=top;spacingLeft=4;spacingRight=4;overflow=hidden;rotatable=0;points=[[0,0.5],[1,0.5]];portConstraint=eastwest;whiteSpace=wrap;html=1;fontSize=12;fontColor=#000000;labelBackgroundColor=none;" vertex="1" parent="_PsTrMCltYZbcijLuAfg-202">
          <mxGeometry y="356" width="240" height="26" as="geometry" />
        </mxCell>
      </root>
    </mxGraphModel>
  </diagram>
</mxfile>
